<?xml version="1.0" encoding="utf-8"?>
<!-- Generator: Adobe Illustrator 24.2.1, SVG Export Plug-In . SVG Version: 6.00 Build 0)  -->
<svg version="1.1" id="Ebene_1" xmlns="http://www.w3.org/2000/svg" xmlns:xlink="http://www.w3.org/1999/xlink" x="0px" y="0px"
	 viewBox="0 0 301 104.7" style="enable-background:new 0 0 301 104.7;" xml:space="preserve">
<style type="text/css">
	.st0{fill:#FCFCFC;}
</style>
<path class="st0" d="M91.7,15.9h6v6.7h0.1l5.4-6.7h7.4l-7.1,7.6l8.2,11.9h-7.5l-4.8-7.6l-1.7,1.8v5.8h-6V15.9z"/>
<path class="st0" d="M126.7,32.2c-0.1,1.1,0.1,2.2,0.7,3.2h-5.5c-0.1-0.4-0.2-0.9-0.2-1.3h-0.1c-1.2,1.2-2.9,1.8-4.6,1.7
	c-2.7,0-5-1.3-5-4.3c0-4.5,5.3-4.3,8-4.8c0.7-0.1,1.5-0.4,1.5-1.3s-0.9-1.3-1.8-1.3c-1.7,0-2,0.9-2,1.5h-5c0-1.7,0.9-3.2,2.5-3.8
	c1.5-0.6,3.2-0.9,4.8-0.8c6.8,0,6.7,2.8,6.7,5.6L126.7,32.2z M121.5,29c-0.7,0.3-1.4,0.5-2.1,0.7c-1.2,0.3-1.8,0.6-1.8,1.5
	c0.1,0.8,0.9,1.4,1.7,1.3c1.2,0.1,2.2-0.8,2.3-2c0-0.1,0-0.1,0-0.2L121.5,29z"/>
<path class="st0" d="M129.7,21.2h5.2V23h0.1c1.1-1.5,2.8-2.3,4.6-2.2c2.5-0.2,4.7,1.7,4.9,4.3c0,0.2,0,0.4,0,0.6v9.8h-5.4V28
	c0-1.6-0.2-2.8-1.8-2.8c-0.9,0-2.2,0.5-2.2,2.7v7.5h-5.4V21.2z"/>
<path class="st0" d="M153.9,21.2h2.9v3.3h-2.9v5c0,1.3,0.3,1.9,1.7,1.9c0.4,0,0.8,0,1.2-0.1v4.1c-1.1,0-2.3,0.2-3.5,0.2
	c-2.3,0-4.8-0.4-4.8-4.2v-6.8h-2.4v-3.3h2.4v-4.3h5.4L153.9,21.2z"/>
<path class="st0" d="M165.9,35.8c-5.3,0-7.7-3.5-7.7-7.5s2.4-7.4,7.7-7.4s7.7,3.5,7.7,7.4S171.2,35.8,165.9,35.8z M165.9,24.8
	c-2.1,0-2.3,2-2.3,3.5s0.3,3.5,2.3,3.5s2.3-2,2.3-3.5S167.9,24.8,165.9,24.8L165.9,24.8z"/>
<path class="st0" d="M176,21.2h5.2V23h0.1c1.1-1.5,2.8-2.3,4.6-2.2c2.5-0.2,4.7,1.7,4.9,4.3c0,0.2,0,0.4,0,0.6v9.8h-5.4V28
	c0-1.6-0.2-2.8-1.8-2.8c-0.9,0-2.2,0.5-2.2,2.7v7.5H176V21.2z"/>
<path class="st0" d="M202,25.3c0-0.4-0.3-0.8-0.6-1.1c-0.3-0.3-0.8-0.4-1.2-0.4c-0.8,0-1.6,0.2-1.6,1.1c0,0.4,0.3,0.6,0.6,0.7
	c0.9,0.4,3,0.5,4.8,1.1s3.4,1.6,3.4,4c0,3.9-3.8,5-7.2,5s-7-1.3-7.1-5h5.2c0,0.5,0.3,0.9,0.6,1.2c0.4,0.3,0.9,0.4,1.4,0.4
	c0.7,0,1.8-0.3,1.8-1.1s-0.5-1.1-3-1.5c-4.1-0.7-5.8-2-5.8-4.5c0-3.6,3.9-4.5,6.7-4.5c3.1,0,6.8,0.9,6.9,4.5H202z"/>
<path class="st0" d="M217.8,25.3c0-0.4-0.3-0.8-0.6-1.1c-0.3-0.3-0.8-0.4-1.2-0.4c-0.8,0-1.6,0.2-1.6,1.1c0,0.4,0.3,0.6,0.6,0.7
	c0.9,0.4,3,0.5,4.8,1.1s3.4,1.6,3.4,4c0,3.9-3.8,5-7.2,5s-7-1.3-7.1-5h5.2c0,0.5,0.3,1,0.7,1.3c0.4,0.3,0.9,0.4,1.4,0.4
	c0.7,0,1.8-0.3,1.8-1.1s-0.5-1.1-3-1.5c-4.1-0.7-5.8-2-5.8-4.5c0-3.6,3.9-4.5,6.7-4.5c3.1,0,6.8,0.9,6.9,4.5L217.8,25.3z"/>
<path class="st0" d="M234.4,26.6c0-0.5-0.2-1-0.6-1.3c-0.4-0.3-0.9-0.5-1.4-0.5c-2.1,0-2.4,1.8-2.4,3.5s0.3,3.5,2.4,3.5
	c1.1,0,2.1-0.9,2.1-2.1h5.2c-0.2,1.8-1.1,3.4-2.5,4.5c-1.4,1.1-3.2,1.6-4.9,1.6c-4.3,0-7.7-3-7.7-7.4c-0.1-4.1,3.1-7.4,7.2-7.5
	c0.2,0,0.3,0,0.5,0c3.7,0,6.9,1.8,7.2,5.7L234.4,26.6z"/>
<path class="st0" d="M242,15.9h5.4v6.9h0.1c1.1-1.3,2.7-2,4.4-1.9c2.5-0.2,4.7,1.7,4.9,4.3c0,0.2,0,0.4,0,0.6v9.7h-5.4V28
	c0-1.6-0.2-2.8-1.8-2.8c-0.9,0-2.2,0.5-2.2,2.7v7.5H242V15.9z"/>
<path class="st0" d="M274.5,35.4h-5.2v-1.8h0c-1.1,1.5-2.8,2.3-4.6,2.2c-2.5,0.2-4.7-1.7-4.9-4.3c0-0.2,0-0.4,0-0.6v-9.7h5.4v7.4
	c0,1.6,0.2,2.8,1.8,2.8c0.9,0,2.2-0.5,2.2-2.7v-7.5h5.4L274.5,35.4z"/>
<path class="st0" d="M277.6,15.9h5.4v19.5h-5.4L277.6,15.9z"/>
<path class="st0" d="M290.6,29.5c0.1,1.6,1.4,2.8,3,2.7c0.8,0,1.5-0.4,2-1h5.1c-1.1,3.1-4.1,4.5-7.3,4.5c-4.5,0-8-2.7-8-7.4
	c-0.1-4,3.1-7.4,7.1-7.5c0.1,0,0.3,0,0.4,0c5.6,0,8.1,3.1,8.1,8.7L290.6,29.5z M295.8,26.7c0-1.3-1-2.4-2.3-2.4c0,0-0.1,0-0.1,0
	c-1.4-0.1-2.7,0.9-2.8,2.3c0,0,0,0,0,0H295.8z"/>
<path class="st0" d="M91.6,43.2h10.7c5.1,0,6.2,2.9,6.2,4.9c0.1,1.7-0.9,3.2-2.4,3.9c2.1,0.6,3.5,2.7,3.4,4.9c0,3.9-3.4,5.9-6.8,5.9
	H91.6V43.2z M97.6,50.8h3.2c1.3,0,2.1-0.4,2.1-1.6c0-1-0.8-1.3-2.1-1.3h-3.2L97.6,50.8z M97.6,58.1h3.5c1.3,0,2.3-0.4,2.3-1.9
	c0-1.2-0.7-1.8-2.1-1.8h-3.8L97.6,58.1z"/>
<path class="st0" d="M126.7,62.8h-5.2V61h-0.1c-1.1,1.5-2.8,2.3-4.6,2.2c-2.5,0.2-4.7-1.7-4.9-4.3c0-0.2,0-0.4,0-0.6v-9.8h5.4V56
	c0,1.6,0.2,2.8,1.8,2.8c0.9,0,2.2-0.5,2.2-2.7v-7.5h5.4L126.7,62.8z M113.9,43.5h4.7v3.6h-4.7V43.5z M120.1,43.5h4.7v3.6h-4.7V43.5z
	"/>
<path class="st0" d="M134.2,56.9c0.1,1.6,1.4,2.8,3,2.7c0.8,0,1.5-0.4,2-1h5.1c-1.1,3.1-4.1,4.5-7.3,4.5c-4.5,0-8-2.7-8-7.4
	c-0.1-4,3.1-7.4,7.1-7.5c0.1,0,0.3,0,0.4,0c5.6,0,8.1,3.2,8.1,8.7L134.2,56.9z M139.4,54.1c0-1.3-1-2.4-2.3-2.4c0,0-0.1,0-0.1,0
	c-1.4-0.1-2.7,0.9-2.8,2.3c0,0,0,0,0,0H139.4z"/>
<path class="st0" d="M147,43.2h5.4v19.5H147V43.2z"/>
<path class="st0" d="M155.5,48.6h5.2v2.3h0.1c0.6-1.6,2.2-2.7,4-2.6c0.5,0,1.1,0.1,1.6,0.2v4.8c-0.7-0.3-1.4-0.4-2.1-0.4
	c-2.1,0-3.3,1.3-3.3,4.3v5.6h-5.4L155.5,48.6z"/>
<path class="st0" d="M181.7,59.6c-0.1,1.1,0.1,2.2,0.7,3.2h-5.5c-0.1-0.4-0.2-0.9-0.2-1.3h-0.1c-1.2,1.2-2.9,1.8-4.6,1.7
	c-2.7,0-5-1.3-5-4.3c0-4.5,5.3-4.3,8-4.8c0.7-0.1,1.5-0.4,1.5-1.3s-0.9-1.3-1.8-1.3c-1.7,0-2,0.8-2,1.5h-5c-0.1-1.7,0.9-3.2,2.4-3.9
	c1.5-0.6,3.2-0.9,4.8-0.8c6.8,0,6.7,2.8,6.7,5.5V59.6z M176.5,56.4c-0.7,0.3-1.4,0.5-2.1,0.7c-1.2,0.3-1.8,0.6-1.8,1.5
	c0.1,0.8,0.9,1.4,1.7,1.3c1.2,0.1,2.2-0.8,2.3-2c0-0.1,0-0.1,0-0.2L176.5,56.4z"/>
<path class="st0" d="M190.2,47h-5.4v-3.8h5.4V47z M184.8,48.5h5.4v14.2h-5.4V48.5z"/>
<path class="st0" d="M193.3,48.6h5.2v1.8h0.1c1.1-1.5,2.8-2.3,4.6-2.2c2.5-0.2,4.7,1.8,4.8,4.3c0,0.2,0,0.3,0,0.5v9.7h-5.4v-7.4
	c0-1.6-0.2-2.8-1.8-2.8c-0.9,0-2.2,0.5-2.2,2.7v7.5h-5.4L193.3,48.6z"/>
<path class="st0" d="M111.1,90.1h-5.8l-2.1-11.9h-0.1L101,90.1h-5.9l-5.3-19.5h5.9l2.4,12.1h0.1l2.3-12.1h5.3l2.3,12.2h0.1l2.4-12.2
	h5.9L111.1,90.1z"/>
<path class="st0" d="M123.6,74.4h-5.4v-3.8h5.4V74.4z M118.2,75.9h5.4v14.2h-5.4V75.9z"/>
<path class="st0" d="M126.7,75.9h5.2v1.8h0.1c1.1-1.5,2.8-2.3,4.6-2.2c2.5-0.2,4.7,1.7,4.9,4.3c0,0.2,0,0.4,0,0.6v9.7H136v-7.4
	c0-1.6-0.2-2.8-1.8-2.8c-0.9,0-2.2,0.5-2.2,2.7v7.5h-5.4L126.7,75.9z"/>
<path class="st0" d="M150.9,75.9h2.9v3.3h-2.9v5c0,1.3,0.3,1.9,1.7,1.9c0.4,0,0.8-0.1,1.2-0.1v4.1c-1.1,0-2.3,0.2-3.5,0.2
	c-2.3,0-4.8-0.4-4.8-4.2v-6.8h-2.4v-3.3h2.4v-4.3h5.4L150.9,75.9z"/>
<path class="st0" d="M160.2,84.2c0.1,1.6,1.4,2.8,3,2.7c0.8,0,1.5-0.4,2-1h5.1c-1.1,3.1-4.1,4.5-7.3,4.5c-4.5,0-8-2.7-8-7.4
	c-0.1-4,3.1-7.4,7.1-7.5c0.1,0,0.3,0,0.4,0c5.6,0,8.1,3.2,8.1,8.7L160.2,84.2z M165.4,81.4c0-1.3-1-2.4-2.2-2.4c-0.1,0-0.1,0-0.2,0
	c-1.4-0.1-2.7,0.9-2.8,2.3c0,0,0,0,0,0L165.4,81.4z"/>
<path class="st0" d="M172.9,75.9h5.2v2.3h0.1c0.6-1.6,2.2-2.7,4-2.6c0.5,0,1.1,0.1,1.6,0.2v4.8c-0.7-0.3-1.4-0.4-2.1-0.4
	c-2.1,0-3.3,1.3-3.3,4.3v5.6h-5.4V75.9z"/>
<path class="st0" d="M192.4,75.9h2.9v3.3h-2.9v5c0,1.3,0.3,1.9,1.7,1.9c0.4,0,0.8,0,1.2-0.1v4.1c-1.1,0-2.3,0.2-3.5,0.2
	c-2.3,0-4.8-0.4-4.8-4.2v-6.8h-2.4v-3.3h2.5v-4.3h5.4L192.4,75.9z"/>
<path class="st0" d="M197.5,70.6h5.5v6.9l0,0c1.1-1.3,2.7-2,4.4-1.9c2.5-0.2,4.7,1.7,4.9,4.3c0,0.2,0,0.4,0,0.6v9.7h-5.4v-7.4
	c0-1.6-0.2-2.8-1.8-2.8c-0.9,0-2.2,0.5-2.2,2.7v7.5h-5.4V70.6z"/>
<path class="st0" d="M230,90.1h-5.2v-1.8h-0.1c-1.1,1.5-2.8,2.3-4.6,2.2c-2.5,0.2-4.7-1.7-4.9-4.3c0-0.2,0-0.4,0-0.6v-9.7h5.4v7.4
	c0,1.6,0.2,2.8,1.8,2.8c0.9,0,2.2-0.5,2.2-2.7v-7.5h5.4V90.1z"/>
<path class="st0" d="M233.1,75.9h5.2v2.3h0.1c0.6-1.6,2.2-2.7,4-2.6c0.5,0,1.1,0.1,1.6,0.2v4.8c-0.7-0.3-1.4-0.4-2.1-0.4
	c-2.1,0-3.3,1.3-3.3,4.3v5.6h-5.4L233.1,75.9z"/>
<path class="st0" d="M28.5,102.6c0.4,0.1,0.7,0.3,1,0.6c0.7-0.9,1-2,0.8-3.1C29.5,100.1,28.7,101.5,28.5,102.6 M30.9,98.8
	c0.4,0.8,0.5,1.7,0.4,2.5c0.1,0,0.3,0.1,0.4,0.1c0.4-1.1,0.4-2.3-0.1-3.4C31.2,98.1,30.9,98.4,30.9,98.8 M33,99.6
	c0.4-0.9,0.3-2-0.1-2.9c-0.1-0.1-0.7,0.2-0.8,0.6c0.4,0.7,0.6,1.5,0.6,2.2C32.8,99.5,32.9,99.6,33,99.6 M58.4,98.1
	c0.4,0.1,0.9,0.2,1.2,0.5c0.5-0.9,0.7-1.9,0.5-2.9C59.1,95.7,58.4,97.4,58.4,98.1 M60.7,94.6c0.3,0.6,0.4,1.2,0.5,1.9
	c0.1,0,0.3,0,0.4,0c0.3-0.9,0.3-2-0.1-2.9C61.2,93.5,60.9,94.1,60.7,94.6 M62.7,93.8c0.1-0.7,0-1.5-0.3-2.2
	c-0.2-0.2-0.5,0.3-0.6,0.8c0.3,0.4,0.5,0.9,0.7,1.4C62.5,93.8,62.6,93.8,62.7,93.8 M39.5,62c-1.5,0.5-3.2,1.7-3.2,2
	c-0.1,0.9-0.2,1.8-0.2,2.8c0.9-0.5,1.2-1.5,2.2-2.3c1.9-1.5,2.8-1.7,2.7-1.9C40.7,62.2,39.9,62,39.5,62 M59.7,89.6
	c-2.8-0.3-5.5,2.2-7.3,1.1c-1.1-0.8-2-1.7-2.7-2.8c-0.5-0.7-1.9-2.8-1.8-3.7c0-0.3,0.6-0.6,1.6-1.2c1.6-1,3.2-2.1,4.7-3.3
	c1.7-1.4,4.4-3.5,4.5-6.3c0-1.9-1.2-4-2.2-5.2c-2.1-2.4-4.7-4.5-7.5-6c-1.6-0.9-3.3-1.8-5-2.5c-1.4,0.8-2.1,1-3.3,1.7
	c0.9,0.3,1.6,0.9,1.5,1.4c-0.1,0.3-0.3,0.4-1.4,1.1c-0.6,0.4-1.2,0.9-1.7,1.4c-0.7,0.7-1.3,1.5-1.9,2.3c-0.3,0.4-0.7,0.7-1.1,1
	c0,0.4,0,0.8,0,1.3c4.6,0.1,8.8,1.5,10.8,4c0.4,0.5,0.7,0.9,0.9,1.5c0.7,2-0.1,4.1-1.9,5.2c-1.3,0.8-4.2,1.4-5,2.1
	c-0.6,0.6-0.7,1.7-1.4,2.6c-0.3,0.4-0.7,0.7-1.2,0.9c0.5,0.6,1.2,0.9,2,0.8c0.3-0.3,0.6-0.6,0.8-0.9c0.3-0.4,0.4-0.9,0.4-1.4
	c0-0.1,0.2-0.3,0.3,0.2c0.5,2.4-2.3,2.7-1.8,5.3c0.6-0.5,1.4-0.7,2.2-0.5c0.2-0.4,0.5-0.8,0.8-1.1c0.2-0.4,0.3-0.8,0.3-1.3
	c0-0.2,0.2-0.2,0.3,0.4c0.3,1.7-1.5,2.2-0.8,4.9c0.5-0.4,1.2-0.6,1.9-0.6c0.3-0.5,0.5-1.1,0.4-1.7c0-0.2,0.2-0.4,0.3,0.3
	c0.3,1.3-0.8,1.8-0.2,3.4c1.9-0.8,2.4,0.6,3.3,1.7c0.5,0.7,1,1.4,1.6,2c1.3,1,4.9,0.1,7.7,0.4c0.1-1.4,1-2.6,2.3-3.1
	c-0.5-1.3-1.9-2-3.3-1.6c-0.3,0.1-0.6,0.3-0.9,0.6c-0.2,0.2-0.1-0.3,0.3-0.6c1.4-1,3.2-0.7,4.2,0.7c0.2-0.5,0.6-0.9,0.9-1
	c-0.8-1.6-2.8-2.2-4.3-1.4c-0.2,0.1-0.3,0.2-0.4,0.3c-0.1,0.1-0.1-0.2,0.2-0.5c1.5-1,3.5-0.8,4.7,0.6c0.1-0.5,0.4-0.9,0.6-0.9
	C61.5,90.3,60.7,89.8,59.7,89.6 M74.9,50.2c-0.9,0.6-0.9,2-0.7,2.9c0.4-0.1,0.8-0.1,1.3,0.1C75.7,52.1,75.5,51,74.9,50.2 M76.6,50.8
	c0-1.1-0.4-2.2-1.2-3c-0.3,0-0.4,0.8-0.3,1.2c0.6,0.5,1,1.2,1.2,1.9C76.4,50.9,76.5,50.9,76.6,50.8 M75.7,47c0.5,0.5,0.8,1,1.1,1.6
	c0.1,0,0.2,0,0.3,0c0-1-0.3-1.9-1-2.6C75.7,45.9,75.6,46.7,75.7,47 M72.2,22.3c-0.6-0.8-1.5-1.3-2.5-1.3c-0.2,0.9,0.9,1.9,1.7,2.2
	C71.6,22.8,71.8,22.5,72.2,22.3 M70.6,19.9c-0.8-0.7-1.9-1.1-3-0.9c-0.1,0.4,0.5,1,0.9,1.2c0.6-0.2,1.3-0.3,2-0.1L70.6,19.9
	 M64.9,22.7c-0.4-0.9-0.3-1.9,0.1-2.7c0.2-0.5,0.6-0.9,1-1.2c-0.4,0-0.7-0.3-0.8-0.7c-3,1.6-1.5,4.7-1.8,7.5
	c-0.2,1.7-2.4,2.3-3.8,3.3c-1.2,0.7-2.3,1.5-3.3,2.5c1.6,3.7,0.5,4.5,2.2,6.3c-0.3,0.4-0.8,0.6-1.3,0.6c0,1.5-0.2,2.9-0.6,4.4
	c1.3-0.5,2.2,0.3,3.3-0.7c-0.8-0.7-1.1-1.9-0.8-2.9c0.1-0.4,0.3-0.4,0.3-0.3c0,0.2,0,0.4,0.1,0.6c0.9,0.2,1.8,0.1,2.6-0.3
	c-1.4-2.3,1.2-4.4,3.2-5.6c1.4-0.9,3.3-1.9,4.3-3.2c1.3-1.8,0.7-3.7,1.5-6.3c-1-0.5-2.3-1.5-2.2-2.9c-1,0.1-2.3,1.4-1.6,3.6
	c0.1,0.4-0.1,0.3-0.3-0.1c-0.8-1.4-0.4-3.1,0.9-4c-0.6-0.4-1-1-0.9-1.4c-1.6,0.6-2.1,1.9-1.7,3.8C65.3,23.2,65.1,23.2,64.9,22.7
	 M68.2,17.8c-0.7-0.3-1.6-0.3-2.3,0c-0.2,0.2,0.1,0.5,0.8,0.6c0.5-0.2,1-0.4,1.6-0.4C68.1,18,68.1,17.9,68.2,17.8 M48.7,15.1
	c-0.1,0-0.1,0.1-0.2,0.3c-0.2,0.3-0.4,0.5-0.7,0.8c0.4,0,0.8,0,1.1,0.1C49,15.8,48.9,15.5,48.7,15.1 M42.7,16.1
	c0.4,1.2,2.5,0.1,4.2,0c0.5-0.4,0.8-0.8,1.2-1.3C46,14.4,43.8,14.7,42.7,16.1 M49.1,12.2c0.1,0.3,0.2,0.7,0.3,1c0,0.2,0,0.3,0.1,0.3
	c0.4-0.3,0.7-0.8,0.9-1.3C50,12.3,49.5,12.3,49.1,12.2 M42.4,15c1.4-1.2,3.5-1.6,6.5-1.1c-0.1-0.6-0.3-1.1-0.6-1.6
	C45.3,11.8,42.4,11.7,42.4,15 M33.6,1.3c-4.5-0.1-6.1,0.6-8.8,0.7c-0.4,0-0.8-0.1-1.1-0.2c-0.2,0.5-0.2,1,0,1.4
	C22.1,4.1,22,5.8,20,5.5c-0.1,0.6,0.1,1.2,0.6,1.6c0.2-0.1,0.6-0.2,0.6,0c-0.5,1.4-0.8,2.9-0.9,4.4c-0.1,0.7-1.1,1.3-2,1.5
	c-0.1,0.8,0.4,1.5,1.2,1.7c0.5-1,1.3-1.2,1.1-0.9c-0.2,0.7-0.4,1.4-0.4,2.1c0,2.1,0.4,4.3,1.2,6.2c1.4,3.3,3.1,5.9,0.7,7.4
	c0.3,0.8,1.9,1.3,3,0.8c0.3-0.8,0.3-1.7,0.1-2.5c0-0.1,0.1-0.1,0.2,0c0.6,0.7,0.9,1.7,0.6,2.7c-0.4,2.5-2.5,5.5-1,8.4
	c0.5-0.4,1.1-0.8,1.7-0.9c0-1.2,0.5-2.4,1.4-3.2c0.5-0.4,0.6-0.1,0.5,0c-1.1,1.3-1,3.8-0.7,6c0.4,2.8-0.5,4.4-1.3,4.8
	c1.2,0.5,2.5,0.4,3.6-0.2c0.8-0.4,1.5-1.1,2-1.9c-0.8-1.2-1.1-2.7-0.8-4.2c0.2-0.8,0.6-1.1,0.6-0.7c-0.6,3.5,2.7,5,2.6,8.4
	c1.7-0.6,2.5-2.6,2.3-4.6c0-0.3,0.2-0.1,0.3,0.1c1,2.8-0.8,6.6-4.1,6.3c0.3-1.5,0.1-3.1-0.5-4.5c-0.5,0.8-1.2,1.5-2,2
	c-0.1,0.8-0.2,1.5-0.4,2.2c-0.4,2-1.4,3.9-2.9,5.3c-3.1,3.2-4.2,3.4-6.2,6.3c-0.8,0.6-1.6,1.1-2.5,1.5C12.5,64.2,7.4,61,7.8,54.4
	c0.2-2.7,1.5-6.1,2.6-8.6c3.2-7.3,6.2-13.4,6.6-19c0.3-4.6-1.6-9.1-6.4-9.2c-3.2,0-6.4,2.6-6.4,8c0,3.1,0,5.5-1.3,7.7
	C2.6,33.6,2.3,34,2,34.4c2,0.2,3.9-0.7,5.1-2.2c0.2,0.3,0.3,0.6,0.4,0.9c1.4-1.3,1.6-3.7,1.1-5.7c0.8,0.2,1.7-0.2,2-1
	c-2-0.3-3.4-2.3-3.1-4.3c0,0,0-0.1,0-0.1c0.2-1.5,1.4-2.6,2.8-2.8c4-0.5,5.1,3.6,5.1,7.4c-0.1,4.9-3,10.2-5.6,15.6
	c-2.1,4.4-4.4,8.8-4.7,13c-0.3,4.5,1.8,12.8,13.3,11c0.5-1.3,1-1.9,1.4-1.7c0.1,0.1,0,0.3,0,0.7c-0.2,1.3-0.3,2.5-0.3,3.8
	c0.1,3,1.4,6,1.6,8.1c0.2,3.4-1.5,3.8-4.3,4.1c-1.4,0-2.7,0.2-4,0.6c-0.6,0.3-1,1.8-1.6,2.6c-0.6,0.7-1.5,1.2-2.4,1.3
	c0.5,0.9,1.5,1.4,2.5,1.3c0.5-0.5,0.9-1.2,1-1.9c0-0.2,0.3-0.3,0.2,0.4c-0.2,2-1.6,3.6-3.6,4c0.5,1,1.6,1.5,2.7,1.4
	c0.9-0.5,1.5-1.3,1.7-2.3c0.1-0.3,0.3-0.2,0.3,0.2c-0.1,1-0.5,2-1.3,2.6c-0.8,0.6-1.2,1.6-1,2.6c0.7-0.3,1.4-0.3,2.1-0.1
	c0.5-0.4,0.9-1,1-1.7c0-0.3,0.3-0.2,0.3,0.4c-0.1,1.5-1.3,2.2-1,3.6c2.9-1.4,3.2,3.8,5.5,5.3c1.9,1.3,5.4,0.5,8.5,0.8
	c0.2-1.4,1.1-2.8,2.4-3.1c-0.5-2-2.8-1.9-3.9-1.2c-0.2,0.2-0.2-0.2,0.1-0.4c1.2-0.9,3-0.7,4,0.4c0.2-0.4,0.6-0.7,1-0.8
	c-0.8-1.6-2.7-2.3-4.3-1.5c-0.1,0.1-0.3,0.1-0.4,0.2c-0.3,0.2-0.2-0.2,0.3-0.5c1.6-1,3.8-0.5,4.8,1.2c0.2-0.3,0.6-0.7,0.9-0.7
	c-0.6-1.4-2-2.2-3.5-2.1c-3,0.1-5.5,2-6.6,0.5c-1.8-2.5-2.7-5.5-2.9-8.6c0-0.3,0-0.6,0.3-0.7c2.3-0.5,4.5-1,6.4-1.6s4.2-1.4,5.7-3.2
	c1.5-1.8,2-6.1,2.3-9.5c0.1-1.6,0.3-4.1,0.4-5.8c0.2-2.9,0.8-4.7,1.9-5.2c0.3-0.1,0.4,0,0.2,0.4c-0.3,0.7-0.5,1.4-0.6,2.2
	c0.5-0.4,1-0.7,1.6-1.1c1.5-0.8,2.5-1.2,4.1-2.1c1.5-0.8,2.8-1.7,4.1-2.8c0.8-0.6,1.6-1.3,2.2-2.2c-0.2-0.2-0.3-0.5-0.4-0.7
	c-0.9,1.2-2.2,1.8-3.7,1.8c0.3-1.2,0-2.5-1-3.3c-0.8-0.6-1.5-1.3-2.2-2c-2.1-2.3-0.3-7.1-2.5-10c-0.2-0.3,0.2-0.2,0.5,0.1
	c1.3,1.2,1.5,3,1.7,4.8c0.2,1.4,0.3,3,0.9,4c1.2,1.8,3.8,2.2,3.7,5c0.8-0.2,1.9-1,1.9-1.8c0-0.5-0.3-1-0.7-1.4
	c-0.1-0.1,0-0.3,0.3-0.2c0.6,0.2,0.9,1,1.2,1.5c0.3,0.6,0.6,1.1,1,1.7c0.8,0.9,1.7,1.3,1.8,2.8c0.9-0.3,1.5-1,1.7-1.9
	c-0.4-1.1-0.1-2.1-1.2-2.8c-0.2-0.1-0.1-0.3,0.5-0.1c1.4,0.6,1.2,2.3,1.9,3.2c0.4,0.7,1.1,1.2,1.9,1.3c0.1-0.9,0.5-1.7,1.2-2.3
	c0-0.5-0.3-0.9-0.7-1.2c-0.2-0.1-0.1-0.3,0.5,0c1.3,0.7,0.9,2.5,2.6,3.2c0.5-1.5,2.3-1,4.1-0.5c0.9,0.3,1.9,0.5,2.9,0.5
	c3.5,0.2,4.1-2.2,7.1-2.9c-0.2-1.5,0.1-2.9,1.1-3.5c-1-1.1-2.7-1.1-3.8-0.1c-0.1,0.1-0.2,0.2-0.3,0.4c-0.2,0.2-0.1-0.2,0.1-0.5
	c0.9-1.2,2.6-1.6,3.9-0.9c0-0.5,0.2-1.3,0.4-1.3c-1.3-1.2-3.4-1.1-4.6,0.3c-0.2,0.2-0.1-0.2,0.1-0.5c1.1-1.4,3.2-1.6,4.6-0.6
	c0-0.3,0.2-1,0.5-1c-0.8-0.8-2-1.2-3.1-1C69,45,68,48.8,64.3,48.5c-1.2-0.3-2.3-0.7-3.4-1.2c-0.9-0.3-2-0.6-3-0.8
	c-2.7-0.6-5.2-0.7-6.6-2.5c-0.5-0.7-0.9-1.6-1-2.5c-0.1-0.5,0.1-0.7,0.3-0.4c0.8,1.6,1.7,3.1,3.8,3.5c1-2.1,1.5-4.4,1.4-6.7
	c-0.9-0.4-0.9-0.8-1.2-0.9c0.1,1.5-0.3,3-1.1,4.2c-0.3-1.6-1.5-2.9-3.1-3.3c-0.2,0-0.2-0.3,0.6-0.3c0.9,0.1,1.7,0.5,2.3,1.1
	c0.4-1.6,0.3-3.4-0.4-4.9c-0.4-1-1.1-1.9-2-2.6c-0.2-0.1-0.1-0.4,0.5,0c1.8,0.9,2.9,2.7,3.1,4.7c0.8,0.5,1.2,1.6,2.4,1.3
	c-1-1.1-0.5-3-2.1-5.8c-0.9-1.5-2.3-2.8-3.9-3.5c-2.4-1.2-5.2-2-7-2.7s-3-1.6-3.2-4.4c-0.6-0.3-1-0.7-1.4-1.2
	c-0.4,0.4-0.6,0.9-0.6,1.4c-1.1-0.6-1.9-1.7-2-3c-0.4,0.1-1.2,2.3-4,1.2c1.7-1.8-0.6-3.2,1.2-5.3c0.3-0.4,0.9-0.5,0.6-0.2
	c-1.7,2.4,0.3,3.2-0.4,4.8c1.8,0.2,1.9-2.2,3.5-2.2c-0.2,1.1,0,2.5,0.7,3c0.3-0.6,0.9-1.1,1.6-1.4c0.3,1.1,1.2,2,2.4,2.2
	c1.7,0.4,3.7-0.6,5.1-0.4c0.8,0.1,1.5,0.6,1.9,1.3c0.7-0.7,1.3-3.3,1.1-3.5c-2.7-1.7-7.2,2-8.5-1.1c-0.2-0.6-0.3-1.2-0.3-1.9
	c0.4-2.5,2-3.7,5-3.5c1.3,0.1,4.2,0.7,4.9,0.1s0.5-2.2,0.1-3c-0.8-0.2-1.7-0.7-1.6-1.3s0.5,0.6,1.5,0.2c0.3-0.1,0.4-1.2,0.3-1.2
	c-1.9-0.7-3.9-1-5.9-0.8c-0.3,0.9-1,1-1.1,1.7c0,0.9-0.4,1.8-1,2.5c-0.2,0.1-0.2-0.1-0.1-0.4c0.2-0.5,0.2-1.1,0.1-1.7
	c-0.5-1-2.4-0.9-2.5-2c0-0.4,0.2-0.4,2.2,0.1c0.8,0.2,0.9,0.2,1,0c0.3-0.7-0.8-1.1-1.8-1.3c-2.2-0.6-4.6-0.7-6.8-0.2
	c1.2,0.6,1.5,1.7,1.1,2.2c-0.3,0.3-0.1-0.6-1.4-1.3s-4-1-4.5-0.3c-0.3,0.7-0.4,1.4-0.3,2.1c0.1,1,0.6,1.9,1.4,2.5
	c1.4,0.9,2.3,0.4,2.2,0.7c-0.3,0.6-2.1,0.5-3.1-0.3c-0.9-0.7-1.5-1.8-1.7-2.9c-0.2-1,0-1.9,0.4-2.8c0.6-0.7,2.2-0.8,3.7-0.5
	c1.3-0.4,2.7-0.6,4.1-0.5C36.5,1.6,35,1.2,33.6,1.3 M51.2,12.4c-0.3,0.7-0.8,1.3-1.4,1.7c1.2,0.3,2.3,0.4,3.5,0.4
	c1,0,1.8-0.8,1.8-1.8c0-0.3-0.1-0.6-0.3-0.9c0-0.1,0-0.4,0.3-0.2c1.1,0.6,1.4,2,0.8,3.1c-0.3,0.5-0.7,0.8-1.2,1
	c-1.7,0.6-3.9-0.3-5.4-0.6c0.2,0.4,0.3,0.8,0.4,1.2c0.4,0.1,1.5,0.4,1.4,0.8c-0.1,1.3-0.4,2.5-0.9,3.7c-0.4,1-1.2,2.1-2.2,2.3
	c0.2-3.4-3.6-1.1-5.8-1.8c-0.2,2.4,3.6,3.1,7.6,4.8c2.2,0.8,4.2,2.2,5.6,4.1c1.6-1.2,3.3-2.2,5.1-3c0.8-0.4,1.5-0.8,1.7-1.5
	c0.1-1,0.1-2.1-0.1-3.1c-0.6-4.7,4-7.3,7-4.9c-0.1,0.2-0.2,0.4-0.2,0.6c1,0.3,1.9,0.8,2.6,1.5c-0.2,0.2-0.4,0.5-0.4,0.8
	c0.9,0.4,1.7,1.1,2.1,2c-0.4,0.4-0.7,0.9-1,1.4c-0.4,1.3-0.7,2.7-0.8,4.1c-0.2,1.3-0.7,2.5-1.5,3.5c-1.7,2-5.1,3.1-6.8,5.2
	c-0.6,0.7-0.6,2.3,0.4,2.6c-0.9,1-2.3,1.5-3.6,1.3c0.2,0.7,0.8,1.1,1.5,1.2c-1.5,2.9-4,1.5-5.3,2.2c-0.1,0.3-0.2,0.6-0.3,0.9
	c1.9,0.4,3.8,0.9,5.6,1.6c1.1,0.5,2.8,1.5,4.4,0.9c1-0.5,1.9-1.2,2.8-2c1.3-1.2,3.1-1.8,4.9-1.6c2.7,0.5,4.6,3,4.3,5.7
	c-0.2,0-0.4,0-0.6,0c0.1,0.8,0.2,1.6,0.1,2.3c-0.3,0-0.5,0-0.8,0c0,0.9-0.2,1.8-0.5,2.7c-0.8-0.3-1.6-0.3-2.4-0.1
	c-2.3,0.7-3.8,3.2-7.4,2.9c-0.9-0.1-1.9-0.2-2.8-0.5c-0.8-0.3-1.6-0.5-2.5-0.6c-0.7,0.1-0.7,0.5-0.8,1.2c-1.3-0.1-2.3-0.9-2.8-2.1
	c-0.7,0.5-0.7,1.4-0.7,2.3c-1.3,0-2.5-0.6-3.3-1.6c-0.7,1.2-2,2-3.4,1.9c0.1-0.8-0.1-1.7-0.7-2.3c-1,1.2-2.1,2.2-3.4,3
	c3.1,1.5,5.9,3.3,8.5,5.5c2.5,2.1,5.3,5.4,5.5,8.8c0.2,3.6-2.5,5.7-4.5,7.3s-3.8,2.8-5.8,4.1c-0.1,0.1-0.2,0.2-0.1,0.3c0,0,0,0,0,0
	c0.5,1.3,1.1,2.6,2,3.8c0.5,0.6,1.3,1.6,2.2,1.7c1.4,0,3.3-1.2,4.9-1.4c3.4-0.4,5.9,2.4,4.8,6.2c-0.2-0.1-0.5-0.1-0.7-0.1
	c0,1-0.2,2.1-0.7,3c-0.2-0.2-0.5-0.3-0.8-0.3c-0.2,1-0.6,2-1.3,2.8c-0.5-0.4-1-0.6-1.6-0.7c-4.9-0.2-7.2,0.4-8.9-0.7
	c-0.6-0.6-1.2-1.3-1.7-2c-0.5-0.7-1.1-1.8-1.6-1.9c-0.5-0.1-1.1,0-1.5,0.4c-0.5-0.7-0.8-1.5-0.7-2.3c-0.7,0-1.4,0.3-1.8,0.8
	c-0.6-0.9-0.8-2.1-0.7-3.2c-0.8-0.1-1.6,0.2-2.1,0.9c-0.7-1.1-0.8-2.5-0.2-3.7c-1.2-0.2-2.1-1-2.5-2.2c2-0.8,2.2-2.1,2.9-3.5
	c0.8-1.8,6.3-2,6.9-4.6c0.1-0.8,0-1.7-0.4-2.4c-1.5-2.7-6.1-3.6-10-3.5c-0.1,2-0.4,3.9-0.8,5.8c-0.4,1.5-1.1,3-2.1,4.2
	c-1.3,1.4-3.6,2.3-5.6,2.9s-3.9,1-6.1,1.5c-0.4,0,0.2,3.8,1.3,6.2c0.6,1.3,0.8,2,1.9,1.8c1.3-0.2,3.2-1.1,4.9-1.1
	c3.5,0.1,5.9,3.8,4,7.6c-0.2-0.1-0.4-0.2-0.6-0.3c-0.1,0.8-0.4,1.6-0.8,2.3c-0.2-0.2-0.5-0.3-0.8-0.4c-0.3,0.9-0.9,1.8-1.6,2.4
	c-0.5-0.5-1.2-0.9-1.9-0.9c-5.3-0.2-7.6,0.6-9.7-1.4c-0.7-0.8-1.3-1.7-1.7-2.8c-0.9-2.1-1.6-3.2-3.1-1.7c-0.6-0.9-0.7-2-0.3-3
	c-0.7-0.1-1.5,0-2.2,0.4c-0.5-1-0.5-2.3,0.1-3.3c-1.6-0.2-2.8-1.4-3.1-3c0.9,0,1.8-0.4,2.5-1c-1.4-0.4-2.5-1.5-2.7-3
	c0.9,0,1.7-0.2,2.5-0.6c1.3-1,0.9-3,2.9-3.7c2.4-0.8,7,0.3,7.2-2.7c0.1-1.3-0.9-3.6-1.2-5.1c-0.4-1.6-0.6-3.3-0.6-5
	c-11,1-14.5-6.2-14.2-12.2c0.3-4.8,2-8.2,4.8-13.8c3.4-6.9,5.9-11.8,5.7-16.5c-0.1-2.1-0.9-4.7-2.5-5.1c-3.1-0.9-4.2,2.6-2.7,4.4
	c0.7,0.7,1.7,1.1,2.6,0.9c0.2,1.3-0.6,2.5-1.9,2.9c0.5,2.6-0.7,5.2-2.9,6.5c0-0.3-0.1-0.6-0.2-0.9c-1.5,1.2-4.7,2.4-6.8,1
	c0.5-0.5,0.9-1.1,1.3-1.6c0.9-1.2,1.5-2.5,1.6-4c0.1-1.6,0.2-3.2,0.2-4.5c0.1-4.2,2.9-8.5,8-8.1c4.3,0.3,6.8,3.8,7,8.5
	c0.3,5.4-2.5,11.7-6.2,20.4c-1.5,3.4-2.9,7-2.8,9.8c0.1,3.4,2.4,5.8,5.6,5.9c2,0,3.9-0.7,5.4-1.9c0.3-0.4,0.6-0.7,0.8-1.1
	c2.5-3.4,7.5-5.6,7.8-11c-1.7,0.5-3.9-0.5-4.2-1.8c1.5-0.6,2.6-1.8,2.2-4.9c0-0.3-0.1-0.7-0.1-1.1c-0.8,0.2-1.5,0.7-1.9,1.4
	c-2.7-2.8-1.3-6.4-0.4-8.9c-1.9,0.1-3.5-1.1-4-2.9c0.9-0.1,1.6-0.8,1.6-1.8c-0.2-1-0.5-1.9-0.9-2.7c-1.4-2.6-2.2-5.5-2.2-8.5
	c-1.4-0.8-2.2-2.3-2.1-3.9c1.3-0.1,2.2-0.7,2.3-1.5c0-0.9,0.2-1.8,0.4-2.7c-0.9-1-1.1-2.5-0.5-3.7c0.6,0.2,1.3,0.1,1.9-0.1
	c0.4-0.5,0.9-1,1.4-1.5c-0.1-0.9,0.1-1.8,0.6-2.5c0.5,0.2,1,0.3,1.5,0.4C27,0.8,33-1,37.5,0.7c0.9,0.3,1.6,0.8,2.3,1.5
	c1,0.1,2.1,0.3,3.1,0.5c1,0.3,2,0.6,3,1c0.3,0.1,1.3,0.1,2.2,0.2s3.8,0.6,4.3,1.2s0,1.5,0,2.6s0.5,2.8-0.2,3.9
	C52,12.1,51.6,12.3,51.2,12.4"/>
<path class="st0" d="M36,7.1c-0.1,0.6-0.7,0.8-0.7,0.3c0-1.3-1.4-2-2.9-2.2c-0.4,0,0-0.3,0.4-0.4C34.3,4.7,36.3,5.6,36,7.1"/>
<path class="st0" d="M23.9,19c-0.5,2.9,1,3,1.1,5.1c1.1,0.1,2.2-0.5,2.8-1.5c0.1-0.2,0.2,0,0.1,0.4c-0.5,1.8-2.3,2.8-4.1,2.3
	c0.8-1.9-1.6-3.8-0.3-6.1C23.8,18.7,23.9,18.8,23.9,19"/>
<path class="st0" d="M29,26.8c0.2-0.2,0.3-0.1,0.3,0c-1.4,4.7,2.1,5.1,2.3,9.2c1.5-0.4,2.1-1.6,2.6-3c0.1-0.4,0.3-0.2,0.3,0.3
	c0,0.9-0.3,1.7-0.7,2.4c-0.8,1.3-2.3,2-3.8,1.8c1.1-3.6-1.9-4.9-1.9-8.1C28.1,28.5,28.4,27.5,29,26.8"/>
<path class="st0" d="M47.5,35.3c-0.1-0.2-0.1-0.5,0.5,0.1c2.8,2.6,0,7.1,1.9,9.3c-2.6,1-5.1-0.8-5.4-2.3c-0.1-0.8,0.4,0.3,1.1,0.7
	c0.7,0.5,1.5,0.7,2.4,0.7C47.3,41,49.6,38.7,47.5,35.3"/>
</svg>
